<?xml version="1.0" encoding="UTF-8"?>
<svg id="Layer_1" data-name="Layer 1" xmlns="http://www.w3.org/2000/svg" version="1.1" viewBox="0 0 30 50">
  <defs>
    <style>
      .cls-1 {
        fill: #000;
        stroke-width: 0px;
      }
    </style>
  </defs>
  <path class="cls-1" d="M-39.11-7.74l21.98-22.18-22.11-22.37c-.39-.46-.39-.91.06-1.37.52-.52,1.17-.39,1.63.07L-14.91-30.7c.58.59.58.91,0,1.5L-37.41-6.37c-.98,1.05-2.74-.32-1.7-1.37Z"/>
  <path class="cls-1" d="M-9.16-5.48c-.78-.78-.78-1.56,0-2.34L11.87-28.93l-21.23-21.36c-.72-.72-.46-1.69.06-2.15.52-.52,1.56-.91,2.41.07L15.2-30.1c.78.78.78,1.56.07,2.34L-6.68-5.68c-.72.72-1.69.91-2.47.2Z"/>
  <path class="cls-1" d="M4.09,48.99c-1.24,0-2.35-1.17-2.35-2.28,0-.2-.19-.85,1.04-2.08l19.53-19.66L2.66,5.04c-.46-.46-.65-.91-.65-1.43,0-1.3,1.04-2.61,2.41-2.61.2,0,.98-.13,2.02.91l21.03,21.29c.52.52.78,1.04.78,1.63,0,.07.2.85-.78,1.89L6.18,48.15c-.98.98-1.89.85-2.08.85Z"/>
  <path class="cls-1" d="M67.5-54.3l21.03,21.03c1.11,1.24,1.11,2.93,0,4.17l-21.03,21.03c-1.24,1.11-2.93,1.11-4.17,0-1.11-1.24-1.11-2.93,0-4.17l18.95-18.95-18.95-18.95c-1.11-1.24-1.11-2.93,0-4.17.59-.59,1.24-.85,2.08-.85s1.5.26,2.08.85Z"/>
  <path class="cls-1" d="M117.08-7.2c-1.11,0-2.02-.39-2.74-1.11-1.76-1.56-1.37-3.91.2-5.47l17.06-17.38-17.32-17.58c-1.5-1.5-1.63-3.9.13-5.4.72-.72,1.56-1.04,2.54-1.04,1.24,0,2.35.59,3.19,1.43l19.66,19.92c1.5,1.5,1.43,3.84-.07,5.34l-19.66,20.06c-.85.85-1.82,1.24-2.99,1.24Z"/>
</svg>